<svg xmlns="http://www.w3.org/2000/svg" viewBox="0 0 60.51 108.18"><defs><style>.cls-1{fill:#464648;}.cls-2{fill:#383838;}.cls-3{fill:#d4d4d4;}</style></defs><g id="Camada_2" data-name="Camada 2"><g id="Layer_2_copy" data-name="Layer 2 copy"><rect class="cls-1" width="60.51" height="108.18" rx="9.17"/><rect class="cls-2" x="5.96" y="9.63" width="49.51" height="84.35"/><path class="cls-3" d="M36.41,3.82a.76.76,0,0,1-.77.77H24.87a.76.76,0,0,1-.77-.77h0a.76.76,0,0,1,.77-.77H35.64a.76.76,0,0,1,.77.77Z"/><path class="cls-3" d="M35,100.7a2.4,2.4,0,0,1-2.41,2.4H28a2.4,2.4,0,0,1-2.41-2.4h0A2.41,2.41,0,0,1,28,98.29h4.61A2.41,2.41,0,0,1,35,100.7Z"/></g></g></svg>